# xmcd
#
# Track frame offsets: 
#        183
#        14050
#        31555
#        44860
#        60625
#        77355
#        91100
#        106273
#        123508
#        140043
#
# Disc length: 2085 seconds
#
# Revision: 3
# Processed by: cddbd v1.5.1PL0 Copyright (c) Steve Scherf et al.
# Submitted via: ExactAudioCopy v0.95b1
#
DISCID=7e08230a
DTITLE=Tanya Tucker - What Do I Do With Me
DYEAR=1991
DGENRE=Country
TTITLE0=If Your Heart Ain't Busy Tonight
TTITLE1=Some Kind of Trouble
TTITLE2=(Without You) What Do I Do With Me
TTITLE3=Down To My Last Teardrop
TTITLE4=Everything That You Want
TTITLE5=Trail of Tears
TTITLE6=Bidding America Goodbye (The Auction)
TTITLE7=Time and Distance
TTITLE8=He Was Just Leaving
TTITLE9=Right About Now
EXTD=YEAR: 1991
EXTT0=
EXTT1=
EXTT2=
EXTT3=
EXTT4=
EXTT5=
EXTT6=
EXTT7=
EXTT8=
EXTT9=
PLAYORDER=
